<?xml version="1.0" standalone="no"?>
<svg xmlns="http://www.w3.org/2000/svg" width="9" height="7" viewBox="0 0 9 7" fill="none">
    <path d="M2.99554 7H2.99232C2.93141 6.99953 2.87119 6.98596 2.81517 6.96007C2.75914 6.93418 2.70843 6.89649 2.66597 6.84919L0.137949 4.03125C0.0941696 3.9848 0.0594123 3.92933 0.0357218 3.86812C0.0120313 3.80691 -0.000113771 3.74118 8.03157e-07 3.67481C0.000115378 3.60844 0.0124873 3.54277 0.0363889 3.48165C0.0602906 3.42053 0.0952393 3.36521 0.139178 3.31894C0.183117 3.27266 0.235159 3.23637 0.292242 3.2122C0.349325 3.18803 0.410296 3.17646 0.471568 3.17819C0.53284 3.17991 0.593175 3.19488 0.649023 3.22223C0.704871 3.24958 0.755104 3.28874 0.796767 3.33742L2.99998 5.79286L8.22104 0.139717C8.30773 0.0490525 8.42384 -0.00111521 8.54435 1.88152e-05C8.66487 0.00115284 8.78015 0.0534979 8.86537 0.14578C8.95059 0.238062 8.99894 0.362897 8.99998 0.493398C9.00103 0.623899 8.9547 0.749626 8.87097 0.843497L3.3205 6.85417C3.23432 6.94751 3.11743 6.99997 2.99554 7Z" fill="#FBFBFB"/>
</svg>
